<?xml version="1.0" encoding="UTF-8" standalone="no"?>
<!-- Created with Inkscape (http://www.inkscape.org/) -->

<svg
   width="210mm"
   height="297mm"
   viewBox="0 0 210 297"
   version="1.1"
   id="svg5"
   inkscape:version="1.2 (dc2aedaf03, 2022-05-15)"
   sodipodi:docname="branch1.svg"
   xmlns:inkscape="http://www.inkscape.org/namespaces/inkscape"
   xmlns:sodipodi="http://sodipodi.sourceforge.net/DTD/sodipodi-0.dtd"
   xmlns="http://www.w3.org/2000/svg"
   xmlns:svg="http://www.w3.org/2000/svg">
  <sodipodi:namedview
     id="namedview7"
     pagecolor="#ffffff"
     bordercolor="#666666"
     borderopacity="1.0"
     inkscape:showpageshadow="2"
     inkscape:pageopacity="0.0"
     inkscape:pagecheckerboard="0"
     inkscape:deskcolor="#d1d1d1"
     inkscape:document-units="mm"
     showgrid="false"
     inkscape:zoom="0.57816358"
     inkscape:cx="396.08168"
     inkscape:cy="560.39504"
     inkscape:window-width="1920"
     inkscape:window-height="1009"
     inkscape:window-x="1592"
     inkscape:window-y="-8"
     inkscape:window-maximized="1"
     inkscape:current-layer="layer1" />
  <defs
     id="defs2" />
  <g
     inkscape:label="Layer 1"
     inkscape:groupmode="layer"
     id="layer1">
    <path
       id="path351"
       style="fill:none;stroke:#000000;stroke-width:0.264583px;stroke-linecap:butt;stroke-linejoin:miter;stroke-opacity:1"
       d="M 91.525292,4.1184502 90.133,30.880253 95.846507,65.790688 94.816144,74.072127 84.646287,142.60234 74.030575,105.15922 60.490946,52.960495 79.307014,25.080737 59.807783,46.050323 19.454691,28.13152 53.615396,50.2511 60.107442,76.253906 0.76972031,57.57617 61.849907,84.291722 l 8.012769,31.073818 -53.336147,-3.71917 54.391033,10.87277 12.95881,39.87479 -6.206461,50.49536 -11.505369,75.92455 -13.808177,9.04511 43.287732,-1.37295 48.966323,0.5138 -18.51001,-8.97458 -15.98542,-74.81662 -8.65592,-51.65231 0.97085,-21.06616 25.3105,-30.04877 L 209.0519,88.760733 134.95914,101.48828 152.75146,80.520926 192.59554,58.40238 145.52865,76.319632 129.72444,59.927351 144.7318,83.229805 99.091269,126.1911 106.6007,76.426182 151.69039,18.784867 104.33158,68.60237 94.467457,30.688405 92.506434,2.2199549 Z"
       sodipodi:nodetypes="cccccccccccccccccccccccccccccccccccccccccc" />
  </g>
</svg>
