<?xml version="1.0" encoding="UTF-8" standalone="no"?>
<!-- Created with Inkscape (http://www.inkscape.org/) -->

<svg
   width="210mm"
   height="297mm"
   viewBox="0 0 210 297"
   version="1.1"
   id="svg450"
   inkscape:version="1.2 (dc2aedaf03, 2022-05-15)"
   sodipodi:docname="cloud1.svg"
   xmlns:inkscape="http://www.inkscape.org/namespaces/inkscape"
   xmlns:sodipodi="http://sodipodi.sourceforge.net/DTD/sodipodi-0.dtd"
   xmlns="http://www.w3.org/2000/svg"
   xmlns:svg="http://www.w3.org/2000/svg">
  <sodipodi:namedview
     id="namedview452"
     pagecolor="#ffffff"
     bordercolor="#666666"
     borderopacity="1.0"
     inkscape:showpageshadow="2"
     inkscape:pageopacity="0.0"
     inkscape:pagecheckerboard="0"
     inkscape:deskcolor="#d1d1d1"
     inkscape:document-units="mm"
     showgrid="false"
     inkscape:zoom="0.57816358"
     inkscape:cx="396.08168"
     inkscape:cy="562.12465"
     inkscape:window-width="1920"
     inkscape:window-height="1009"
     inkscape:window-x="1592"
     inkscape:window-y="-8"
     inkscape:window-maximized="1"
     inkscape:current-layer="layer1" />
  <defs
     id="defs447">
    <inkscape:path-effect
       effect="fill_between_many"
       method="originald"
       linkedpaths="#path460,0,1|"
       id="path-effect462" />
    <inkscape:path-effect
       effect="fill_between_many"
       method="originald"
       linkedpaths="#path460,0,1|"
       id="path-effect475" />
  </defs>
  <g
     inkscape:label="Layer 1"
     inkscape:groupmode="layer"
     id="layer1">
    <path
       inkscape:original-d="M 0,0"
       inkscape:path-effect="#path-effect462"
       d="m 37.525413,297.91525 -25.079638,-5.39245 -11.2938309,-7.79622 -5.2703939,-15.65959 6.6366621,-19.5461 9.9117687,-12.54804 11.381698,3.55055 8.712979,-15.98758 12.572665,-8.53011 17.020192,5.90772 13.659345,3.29324 11.766683,-14.1093 9.311242,-7.72232 13.132805,0.0891 12.39963,2.29847 10.21997,7.16622 5.47894,13.07753 12.40972,-6.47594 11.1669,-5.19069 14.48729,5.13346 8.44638,10.62734 17.74212,10.66934 6.22024,9.91828 1.10269,17.15229 -1.83241,13.21511 -5.81696,7.55373 -5.29741,1.90629 -11.56315,-4.78938 -6.5985,7.82654 -10.14625,3.4473 -13.72201,0.72204 -10.51094,-5.6103 -16.02598,5.41124 -45.34735,-0.0283 -22.846143,-7.07114 z"
       id="path464"
       class="UnoptimicedTransforms"
       style="fill:none" />
    <path
       inkscape:original-d="M 0,0"
       inkscape:path-effect="#path-effect475"
       d="m 37.525413,297.91525 -25.079638,-5.39245 -11.2938309,-7.79622 -5.2703939,-15.65959 6.6366621,-19.5461 9.9117687,-12.54804 11.381698,3.55055 8.712979,-15.98758 12.572665,-8.53011 17.020192,5.90772 13.659345,3.29324 11.766683,-14.1093 9.311242,-7.72232 13.132805,0.0891 12.39963,2.29847 10.21997,7.16622 5.47894,13.07753 12.40972,-6.47594 11.1669,-5.19069 14.48729,5.13346 8.44638,10.62734 17.74212,10.66934 6.22024,9.91828 1.10269,17.15229 -1.83241,13.21511 -5.81696,7.55373 -5.29741,1.90629 -11.56315,-4.78938 -6.5985,7.82654 -10.14625,3.4473 -13.72201,0.72204 -10.51094,-5.6103 -16.02598,5.41124 -45.34735,-0.0283 -22.846143,-7.07114 z"
       id="path477"
       class="UnoptimicedTransforms" />
    <path
       id="path460"
       style="fill:none;stroke:#000000;stroke-width:0.264583px;stroke-linecap:butt;stroke-linejoin:miter;stroke-opacity:1"
       class="UnoptimicedTransforms"
       d="m 37.525413,297.91525 -25.079638,-5.39245 -11.2938309,-7.79622 -5.2703939,-15.65959 6.6366621,-19.5461 9.9117687,-12.54804 11.381698,3.55055 8.712979,-15.98758 12.572665,-8.53011 17.020192,5.90772 13.659345,3.29324 11.766683,-14.1093 9.311242,-7.72232 13.132805,0.0891 12.39963,2.29847 10.21997,7.16622 5.47894,13.07753 12.40972,-6.47594 11.1669,-5.19069 14.48729,5.13346 8.44638,10.62734 17.74212,10.66934 6.22024,9.91828 1.10269,17.15229 -1.83241,13.21511 -5.81696,7.55373 -5.29741,1.90629 -11.56315,-4.78938 -6.5985,7.82654 -10.14625,3.4473 -13.72201,0.72204 -10.51094,-5.6103 -16.02598,5.41124 -45.34735,-0.0283 -22.846143,-7.07114 z"
       sodipodi:nodetypes="cccccccccccccccccccccccccccccccccccc" />
  </g>
</svg>
