<?xml version="1.0" encoding="UTF-8" standalone="no"?>
<!-- Created with Inkscape (http://www.inkscape.org/) -->

<svg
   width="210mm"
   height="210mm"
   viewBox="0 0 210 210"
   version="1.1"
   id="svg440"
   sodipodi:docname="palm.svg"
   inkscape:version="1.2 (dc2aedaf03, 2022-05-15)"
   xmlns:inkscape="http://www.inkscape.org/namespaces/inkscape"
   xmlns:sodipodi="http://sodipodi.sourceforge.net/DTD/sodipodi-0.dtd"
   xmlns="http://www.w3.org/2000/svg"
   xmlns:svg="http://www.w3.org/2000/svg">
  <sodipodi:namedview
     id="namedview442"
     pagecolor="#ffffff"
     bordercolor="#000000"
     borderopacity="0.25"
     inkscape:showpageshadow="2"
     inkscape:pageopacity="0.0"
     inkscape:pagecheckerboard="0"
     inkscape:deskcolor="#d1d1d1"
     inkscape:document-units="mm"
     showgrid="false"
     inkscape:zoom="0.72515432"
     inkscape:cx="397.15684"
     inkscape:cy="399.91488"
     inkscape:window-width="1920"
     inkscape:window-height="1009"
     inkscape:window-x="1592"
     inkscape:window-y="-8"
     inkscape:window-maximized="1"
     inkscape:current-layer="layer1" />
  <defs
     id="defs437" />
  <g
     inkscape:label="Layer 1"
     inkscape:groupmode="layer"
     id="layer1">
    <path
       style="fill:#00ff00;stroke-width:0.264583"
       d="M 85.378377,199.21621 47.654565,207.22131 69.39987,189.05406 40.499998,181.70271 12.419515,155.70053 74.067566,178.78378 40.661404,163.35031 1.4594591,97.783784 61.783735,147.94445 43.40171,130.40985 29.554052,39.04054 77.351349,129.89188 60.202701,89.756757 68.433021,10.563166 92.554269,116.31913 84.828304,71.509265 100.4089,4.4765389 118.90721,72.220351 113.70147,115.04633 131.72254,6.7410254 148.5,76.986486 130.82798,129.05409 174.77026,21.527026 166.37838,125.51351 147.46589,147.85076 197.39188,98.513514 162,174.04053 l -14.59963,0.44821 43.0591,1.74099 -42.34896,12.4886 29.407,20.88085 -38.99858,-12.6548 -12.27568,4.46102 -2.55406,9.48649 -35.007821,0.68012 z"
       id="path444"
       sodipodi:nodetypes="cccccccccccccccccccccccccccccccccccc" />
  </g>
</svg>
